<?xml version="1.0" encoding="UTF-8"?>
<svg xmlns="http://www.w3.org/2000/svg" xmlns:xlink="http://www.w3.org/1999/xlink" width="1092px" height="400px" viewBox="0 0 1091 400" version="1.1">
<g id="surface1">
<path style=" stroke:none;fill-rule:nonzero;fill:rgb(0%,0%,0%);fill-opacity:1;" d="M 375.9375 152.777344 L 375.9375 230.675781 L 391.804688 230.554688 L 407.617188 230.375 L 407.796875 169.203125 C 407.917969 113.464844 407.859375 107.851562 406.953125 106.097656 C 406.410156 105.011719 402.003906 97.585938 397.238281 89.492188 L 388.546875 74.878906 L 375.9375 74.878906 Z M 375.9375 152.777344 "/>
<path style=" stroke:none;fill-rule:nonzero;fill:rgb(0%,0%,0%);fill-opacity:1;" d="M 164.3125 122.28125 C 136.675781 127.292969 118.753906 150.90625 120.261719 180.191406 C 121.652344 206.21875 138.546875 226.269531 163.53125 231.402344 C 171.191406 233.03125 185.492188 232.667969 192.796875 230.738281 C 202.871094 228.078125 213.675781 221.316406 218.984375 214.25 C 221.457031 210.992188 224.777344 204.832031 224.355469 204.347656 C 224.113281 204.167969 211.261719 199.273438 210.898438 199.273438 C 210.777344 199.273438 209.992188 200.785156 209.089844 202.65625 C 206.433594 208.152344 201.0625 213.34375 195.027344 216.363281 L 189.898438 218.902344 L 182.597656 218.902344 C 174.148438 218.902344 171.796875 218.296875 166.667969 215.035156 C 158.640625 209.78125 154.117188 200 152.605469 184.421875 C 150.496094 162.800781 157.738281 143.839844 170.410156 137.679688 C 175.296875 135.324219 181.089844 134.421875 186.761719 135.207031 C 197.441406 136.714844 205.105469 142.390625 209.511719 151.992188 C 210.414062 154.105469 211.320312 155.796875 211.382812 155.796875 C 211.5 155.796875 213.976562 154.832031 216.992188 153.625 C 219.949219 152.414062 222.96875 151.207031 223.75 150.90625 L 225.078125 150.363281 L 223.207031 146.617188 C 218.078125 136.292969 207.457031 127.535156 196.113281 124.15625 C 186.761719 121.316406 173.667969 120.589844 164.3125 122.28125 Z M 164.3125 122.28125 "/>
<path style=" stroke:none;fill-rule:nonzero;fill:rgb(0%,0%,0%);fill-opacity:1;" d="M 277.820312 122.042969 C 269.492188 123.429688 259.957031 128.261719 253.378906 134.542969 C 242.519531 144.808594 237.027344 158.996094 237.027344 176.933594 C 237.027344 186.894531 237.933594 192.390625 241.007812 200.605469 C 243.542969 207.425781 246.199219 211.714844 250.964844 216.910156 C 260.800781 227.535156 272.507812 232.488281 287.957031 232.488281 C 299.722656 232.488281 307.265625 229.710938 314.507812 222.886719 L 318.609375 219.082031 L 318.609375 230.675781 L 350.59375 230.675781 L 350.59375 123.792969 L 337.980469 123.792969 L 331.222656 135.023438 L 324.464844 146.316406 L 321.988281 141.546875 C 317.164062 132.1875 307.992188 124.941406 297.730469 122.34375 C 293.6875 121.316406 283.128906 121.136719 277.820312 122.042969 Z M 302.558594 138.464844 C 307.144531 140.578125 311.066406 144.6875 313.480469 149.941406 C 316.257812 155.976562 317.28125 160.265625 318.128906 169.203125 C 320.121094 190.578125 313.179688 209.84375 301.414062 215.640625 C 297.914062 217.332031 297.1875 217.511719 292.84375 217.269531 C 278.90625 216.605469 271.058594 205.617188 269.128906 183.996094 C 267.320312 163.585938 272.871094 145.589844 282.886719 139.371094 C 288.199219 136.109375 296.523438 135.75 302.558594 138.464844 Z M 302.558594 138.464844 "/>
<path style=" stroke:none;fill-rule:nonzero;fill:rgb(0%,0%,0%);fill-opacity:1;" d="M 481.414062 122.28125 C 470.855469 124.941406 462.769531 132.730469 458.304688 144.503906 L 456.976562 148.007812 L 451.363281 135.929688 L 445.753906 123.792969 L 433.261719 123.792969 L 433.261719 230.675781 L 465.183594 230.675781 L 465.425781 195.167969 C 465.605469 165.941406 465.847656 158.996094 466.632812 155.496094 C 468.5625 146.617188 471.699219 140.761719 476.046875 137.863281 C 478.460938 136.230469 484.011719 135.992188 487.148438 137.320312 C 489.984375 138.527344 493.304688 142.027344 494.992188 145.652344 C 498.492188 153.261719 499.035156 159.78125 499.035156 198.1875 L 499.035156 230.675781 L 530.355469 230.675781 L 530.59375 196.980469 C 530.835938 165.097656 530.898438 163.042969 532.164062 157.425781 C 534.398438 147.464844 537.59375 141.484375 542.363281 138.285156 C 544.714844 136.773438 545.679688 136.472656 548.941406 136.472656 C 553.585938 136.472656 556.480469 137.621094 559.558594 140.578125 C 564.628906 145.472656 566.5 151.933594 567.042969 166.0625 C 567.886719 190.15625 561.914062 222.765625 553.222656 241.546875 L 550.871094 246.679688 L 552.199219 247.585938 C 552.921875 248.066406 555.636719 249.636719 558.230469 251.027344 L 562.9375 253.503906 L 566.800781 249.515625 C 588.886719 226.507812 602.644531 183.636719 597.394531 154.289062 C 594.5 138.164062 585.808594 127.414062 572.351562 123.1875 C 567.042969 121.496094 555.699219 120.894531 550.265625 121.921875 C 540.914062 123.792969 532.164062 130.433594 526.792969 139.734375 L 525.105469 142.691406 L 523.59375 139.734375 C 519.371094 131.402344 512.976562 125.664062 505.128906 123.128906 C 499.941406 121.4375 486.664062 120.953125 481.414062 122.28125 Z M 481.414062 122.28125 "/>
<path style=" stroke:none;fill-rule:nonzero;fill:rgb(0%,0%,0%);fill-opacity:1;" d="M 653.753906 122.042969 C 645.429688 123.429688 635.894531 128.261719 629.316406 134.542969 C 618.453125 144.808594 612.964844 158.996094 612.964844 176.933594 C 612.964844 186.894531 613.867188 192.390625 616.945312 200.605469 C 619.480469 207.425781 622.136719 211.714844 626.902344 216.910156 C 636.738281 227.535156 648.445312 232.488281 663.894531 232.488281 C 675.660156 232.488281 683.203125 229.710938 690.445312 222.886719 L 694.546875 219.082031 L 694.546875 230.675781 L 726.527344 230.675781 L 726.527344 123.792969 L 713.917969 123.792969 L 707.160156 135.023438 L 700.398438 146.316406 L 697.925781 141.546875 C 693.097656 132.1875 683.925781 124.941406 673.667969 122.34375 C 669.625 121.316406 659.066406 121.136719 653.753906 122.042969 Z M 678.496094 138.464844 C 683.082031 140.578125 687.003906 144.6875 689.417969 149.941406 C 692.195312 155.976562 693.21875 160.265625 694.0625 169.203125 C 696.054688 190.578125 689.117188 209.84375 677.347656 215.640625 C 673.847656 217.332031 673.125 217.511719 668.78125 217.269531 C 654.839844 216.605469 646.996094 205.617188 645.066406 183.996094 C 643.253906 163.585938 648.808594 145.589844 658.824219 139.371094 C 664.132812 136.109375 672.460938 135.75 678.496094 138.464844 Z M 678.496094 138.464844 "/>
<path style=" stroke:none;fill-rule:nonzero;fill:rgb(0%,0%,0%);fill-opacity:1;" d="M 803.164062 122.28125 C 792.726562 125.242188 785.847656 131.21875 779.511719 142.933594 L 776.734375 148.128906 L 770.640625 135.992188 L 764.542969 123.792969 L 751.871094 123.792969 L 751.871094 230.675781 L 783.855469 230.675781 L 783.855469 199.699219 C 783.855469 166.0625 784.15625 161.957031 787.234375 152.476562 C 789.707031 144.988281 794.414062 138.707031 798.757812 137.015625 C 801.355469 136.050781 806.785156 136.351562 809.621094 137.742188 C 814.808594 140.277344 820.363281 148.429688 823.679688 158.394531 C 824.765625 161.773438 825.1875 162.378906 825.792969 161.714844 C 826.214844 161.292969 830.257812 154.710938 834.785156 147.160156 L 842.992188 133.332031 L 841.722656 131.582031 C 838.949219 127.65625 831.222656 123.730469 823.199219 122.222656 C 817.765625 121.195312 806.84375 121.195312 803.164062 122.28125 Z M 803.164062 122.28125 "/>
<path style=" stroke:none;fill-rule:nonzero;fill:rgb(0%,0%,0%);fill-opacity:1;" d="M 890.902344 122.042969 C 882.574219 123.429688 873.042969 128.261719 866.464844 134.542969 C 855.601562 144.808594 850.109375 158.996094 850.109375 176.933594 C 850.109375 186.894531 851.015625 192.390625 854.09375 200.605469 C 856.628906 207.425781 859.28125 211.714844 864.050781 216.910156 C 873.886719 227.535156 885.59375 232.488281 901.039062 232.488281 C 912.808594 232.488281 920.351562 229.710938 927.589844 222.886719 L 931.695312 219.082031 L 931.695312 230.675781 L 963.675781 230.675781 L 963.675781 123.792969 L 951.066406 123.792969 L 944.304688 135.023438 L 937.546875 146.316406 L 935.074219 141.546875 C 930.246094 132.1875 921.074219 124.941406 910.816406 122.34375 C 906.773438 121.316406 896.214844 121.136719 890.902344 122.042969 Z M 915.644531 138.464844 C 920.230469 140.578125 924.152344 144.6875 926.566406 149.941406 C 929.339844 155.976562 930.367188 160.265625 931.210938 169.203125 C 933.203125 190.578125 926.265625 209.84375 914.496094 215.640625 C 910.996094 217.332031 910.273438 217.511719 905.929688 217.269531 C 891.988281 216.605469 884.144531 205.617188 882.214844 183.996094 C 880.402344 163.585938 885.953125 145.589844 895.972656 139.371094 C 901.28125 136.109375 909.609375 135.75 915.644531 138.464844 Z M 915.644531 138.464844 "/>
</g>
</svg>
